<?xml version="1.0" standalone="no"?>
<!DOCTYPE svg PUBLIC "-//W3C//DTD SVG 20010904//EN"
 "http://www.w3.org/TR/2001/REC-SVG-20010904/DTD/svg10.dtd">
<svg version="1.0" xmlns="http://www.w3.org/2000/svg"
 width="389.000000pt" height="389.000000pt" viewBox="0 0 389.000000 389.000000"
 preserveAspectRatio="xMidYMid meet">
<metadata>
Created by potrace 1.11, written by Peter Selinger 2001-2013
</metadata>
<g transform="translate(0.000000,389.000000) scale(0.100000,-0.100000)"
fill="#000000" stroke="none">
<path d="M1697 3874 c-567 -76 -1065 -388 -1381 -868 -31 -47 -56 -87 -56 -90
0 -3 -13 -27 -29 -55 -65 -109 -147 -330 -186 -496 -48 -209 -55 -528 -16
-749 88 -498 349 -925 753 -1228 164 -123 330 -210 558 -291 78 -28 257 -68
368 -82 103 -13 418 -13 487 -1 17 3 46 9 65 12 119 21 198 40 308 78 208 71
451 202 578 312 12 11 39 33 60 49 69 54 214 208 283 300 214 286 339 588 387
935 12 93 11 395 -2 491 -62 446 -249 823 -565 1138 -280 280 -667 477 -1054
536 -16 3 -46 8 -65 10 -79 12 -399 11 -493 -1z"/>
</g>
</svg>
